<svg id="圖層_1" data-name="圖層 1" xmlns="http://www.w3.org/2000/svg" viewBox="0 0 41.9 33.3"><defs><style>.cls-1{fill:#e0b453;}</style></defs><title>sun</title><circle class="cls-1" cx="15.66" cy="16.3" r="7.6"/><rect class="cls-1" x="15.62" y="1.57" width="1.01" height="6.4"/><rect class="cls-1" x="15.14" y="1.69" width="1.01" height="9.84" transform="translate(-7.16 6.61) rotate(-30)"/><rect class="cls-1" x="27.98" y="1.92" width="1.01" height="9.84" transform="translate(5.48 -19.07) rotate(40.87)"/><rect class="cls-1" x="32.4" y="5.36" width="1.01" height="9.41" transform="translate(16.08 -24.68) rotate(54.56)"/><rect class="cls-1" x="38.54" y="9.6" width="1.01" height="17.59" transform="translate(51.5 -22.75) rotate(90)"/><rect class="cls-1" x="35.94" y="15.94" width="1.01" height="12.4" transform="translate(58.79 -11.87) rotate(100.28)"/><rect class="cls-1" x="28.85" y="23.58" width="0.71" height="4.83" transform="translate(-15.51 28.97) rotate(-49.13)"/><rect class="cls-1" x="25.21" y="26.01" width="0.71" height="4.83" transform="translate(-13.72 7.62) rotate(-18.74)"/><rect class="cls-1" x="15.11" y="24.63" width="1.01" height="4.92"/><rect class="cls-1" x="15.14" y="25.77" width="1.01" height="9.84" transform="translate(7.92 -5.81) rotate(24.05)"/><rect class="cls-1" x="10.12" y="21.81" width="1.01" height="9.84" transform="translate(18.39 -0.66) rotate(50.14)"/><rect class="cls-1" x="9.05" y="15.3" width="0.81" height="7.01" transform="translate(-15.3 26.16) rotate(-90)"/><rect class="cls-1" x="36.72" y="7.82" width="0.81" height="14.02" transform="translate(21.16 51.43) rotate(-97.24)"/></svg>